<svg width="150" height="140" viewBox="0 0 150 140" fill="none" xmlns="http://www.w3.org/2000/svg">
<g clip-path="url(#clip0_90_7)">
<path d="M0.00999819 99.8006C0.020632 99.8557 0.0374009 99.9093 0.0599908 99.9606C0.0699894 99.9906 0.0799879 100.031 0.0899865 100.061L11.4983 119.818L11.5283 119.848C11.5483 119.878 11.5683 119.908 11.5983 119.948C11.6369 119.99 11.6806 120.027 11.7283 120.058C11.7583 120.078 11.7783 120.108 11.8083 120.128C11.82 120.136 11.8342 120.139 11.8483 120.138C11.9615 120.201 12.0885 120.235 12.2182 120.238H57.3516L68.5199 139.575L68.5499 139.605C68.5699 139.635 68.5899 139.665 68.6199 139.705C68.6585 139.747 68.7022 139.784 68.7499 139.815C68.7799 139.835 68.7999 139.865 68.8299 139.885C68.8416 139.893 68.8558 139.896 68.8699 139.895C68.9831 139.958 69.1102 139.992 69.2398 139.995H137.68C137.813 139.992 137.943 139.958 138.06 139.895L138.15 139.835C138.235 139.778 138.309 139.707 138.37 139.625C138.38 139.605 138.41 139.595 138.42 139.575L149.828 119.818C149.838 119.798 149.838 119.788 149.848 119.768C149.866 119.736 149.879 119.703 149.888 119.668C149.898 119.628 149.908 119.598 149.918 119.558C149.926 119.522 149.93 119.485 149.928 119.448C149.928 119.428 149.938 119.418 149.938 119.398C149.938 119.378 149.928 119.368 149.928 119.348C149.928 119.308 149.918 119.278 149.918 119.238C149.918 119.198 149.898 119.168 149.888 119.128C149.876 119.094 149.863 119.06 149.848 119.028C149.838 119.008 149.838 118.998 149.828 118.978L127.261 79.8935L138.42 60.5564C138.43 60.5364 138.43 60.5264 138.44 60.5064C138.457 60.4749 138.471 60.4413 138.48 60.4064C138.49 60.3664 138.5 60.3364 138.51 60.2964C138.518 60.2604 138.521 60.2234 138.52 60.1864C138.52 60.1664 138.53 60.1564 138.53 60.1364C138.53 60.1164 138.52 60.1064 138.52 60.0865C138.52 60.0465 138.51 60.0165 138.51 59.9765C138.51 59.9365 138.49 59.9065 138.48 59.8665C138.468 59.8325 138.455 59.7991 138.44 59.7665C138.43 59.7465 138.43 59.7365 138.42 59.7165L104.215 0.435201C104.195 0.405206 104.165 0.385209 104.145 0.355213C104.111 0.309838 104.074 0.266441 104.035 0.225232C103.994 0.191899 103.95 0.161812 103.905 0.135245C103.861 0.10601 103.814 0.0824875 103.765 0.0652554C103.706 0.0461259 103.646 0.0327316 103.585 0.0252613C103.555 0.0252613 103.525 0.00526428 103.485 0.00526428H80.6682C80.6482 0.00526428 80.6382 0.0152628 80.6182 0.0152628C80.5782 0.0152628 80.5482 0.0252613 80.5082 0.0252613L80.3882 0.0552569C80.3582 0.0652554 80.3182 0.0852526 80.2882 0.0952511C80.2582 0.10525 80.2582 0.10525 80.2382 0.115248C80.2268 0.127599 80.2133 0.137764 80.1982 0.145244C80.1659 0.165393 80.1357 0.188849 80.1082 0.215234C80.0791 0.239317 80.0523 0.266099 80.0283 0.295222C80.0083 0.325217 79.9783 0.355213 79.9583 0.385209C79.9459 0.396602 79.9358 0.410156 79.9283 0.425203L57.3616 39.5195H35.0449C35.0249 39.5195 35.0149 39.5295 34.9949 39.5295C34.9549 39.5295 34.9249 39.5395 34.8849 39.5395C34.8449 39.5395 34.8049 39.5595 34.7749 39.5695C34.7409 39.581 34.7075 39.5944 34.6749 39.6095C34.6549 39.6194 34.6449 39.6194 34.6249 39.6294C34.6049 39.6394 34.6049 39.6494 34.5849 39.6594C34.5526 39.6796 34.5224 39.7031 34.4949 39.7294C34.4658 39.7535 34.439 39.7803 34.4149 39.8094C34.395 39.8394 34.365 39.8694 34.345 39.8994C34.3326 39.9108 34.3224 39.9244 34.315 39.9394L0.099985 99.2207C0.0854458 99.2525 0.0753525 99.2861 0.0699894 99.3207C0.0488005 99.3725 0.0320755 99.426 0.0199967 99.4807C0.00412564 99.5324 -0.00264046 99.5866 -3.4543e-07 99.6406C-0.0016558 99.6942 0.00169158 99.7477 0.00999819 99.8006ZM102.995 1.70501L136.24 59.2866H115.383L82.1279 1.70501H102.995ZM114.403 98.8008H93.5363L115.373 60.9663H136.24L114.403 98.8008ZM80.6682 2.54489L113.913 60.1264L92.0765 97.9609L81.648 79.8835L92.8164 60.5464C92.8264 60.5264 92.8264 60.5164 92.8364 60.4964C92.854 60.4649 92.8674 60.4313 92.8764 60.3964C92.8864 60.3564 92.8964 60.3264 92.9064 60.2864C92.9146 60.2504 92.918 60.2134 92.9164 60.1764C92.9164 60.1564 92.9264 60.1464 92.9264 60.1264C92.9264 60.1064 92.9164 60.0964 92.9164 60.0764C92.9164 60.0365 92.9064 60.0065 92.9064 59.9665C92.9064 59.9265 92.8864 59.8965 92.8764 59.8565C92.8648 59.8225 92.8514 59.7891 92.8364 59.7565C92.8264 59.7365 92.8264 59.7265 92.8164 59.7065L81.3981 39.9494C81.3781 39.9194 81.3481 39.8994 81.3281 39.8694C81.2939 39.824 81.2572 39.7806 81.2181 39.7394C81.1772 39.7061 81.1337 39.676 81.0881 39.6494C81.0435 39.6222 80.9967 39.5987 80.9481 39.5795C80.8936 39.5598 80.8361 39.5497 80.7781 39.5495C80.7481 39.5495 80.7082 39.5295 80.6782 39.5295H59.3213L80.6682 2.54489ZM57.8615 41.2192H80.1882L90.6267 59.2866H46.9431L36.5046 41.2192H57.8615ZM35.0449 42.0591L45.4733 60.1264L12.2282 117.708L1.79974 99.6406L35.0449 42.0591ZM13.698 118.548L46.9431 60.9663H90.6267L80.1882 79.0437H57.8615C57.8415 79.0437 57.8315 79.0537 57.8115 79.0537C57.7715 79.0537 57.7415 79.0637 57.7015 79.0637L57.5815 79.0937C57.5516 79.1037 57.5116 79.1237 57.4816 79.1337C57.4516 79.1437 57.4516 79.1437 57.4316 79.1537C57.4202 79.166 57.4066 79.1762 57.3916 79.1837C57.3592 79.2038 57.3291 79.2273 57.3016 79.2536C57.2725 79.2777 57.2457 79.3045 57.2216 79.3336C57.2016 79.3636 57.1716 79.3936 57.1516 79.4236C57.1416 79.4336 57.1216 79.4436 57.1216 79.4636L45.7133 99.2207C45.6988 99.2525 45.6887 99.2861 45.6833 99.3207C45.6621 99.3725 45.6454 99.426 45.6333 99.4807C45.6247 99.5335 45.6213 99.5871 45.6233 99.6406C45.6216 99.6942 45.625 99.7477 45.6333 99.8006C45.6439 99.8557 45.6607 99.9093 45.6833 99.9606C45.6933 99.9906 45.7033 100.031 45.7133 100.061L56.3917 118.548H13.698ZM137.22 138.305H70.7296L81.1581 120.238H147.648L137.22 138.305ZM69.2698 137.465L47.433 99.6406L57.8715 81.5633L79.7083 119.388L69.2698 137.465ZM147.648 118.548H81.1581L59.3213 80.7234H80.1882L91.3566 100.061L91.3866 100.091C91.4065 100.126 91.4299 100.16 91.4566 100.191C91.4952 100.232 91.5388 100.269 91.5866 100.301C91.6166 100.321 91.6366 100.351 91.6665 100.371C91.6783 100.378 91.6924 100.382 91.7065 100.381C91.8197 100.444 91.9468 100.478 92.0765 100.481H114.893C115.026 100.478 115.156 100.444 115.273 100.381L115.363 100.321C115.448 100.264 115.522 100.193 115.583 100.111C115.593 100.091 115.623 100.081 115.633 100.061L126.311 81.5633L147.648 118.548Z" fill="white"/>
</g>
<defs>
<clipPath id="clip0_90_7">
<rect width="149.938" height="140" fill="white"/>
</clipPath>
</defs>
</svg>
